<svg xmlns="http://www.w3.org/2000/svg" viewBox="0 0 512 512" width="512" height="512">
  <!-- Background gradient -->
  <defs>
    <linearGradient id="grad512" x1="0%" y1="0%" x2="100%" y2="100%">
      <stop offset="0%" style="stop-color:#10b981;stop-opacity:1" />
      <stop offset="100%" style="stop-color:#059669;stop-opacity:1" />
    </linearGradient>
  </defs>

  <!-- Background -->
  <rect width="512" height="512" rx="85" fill="url(#grad512)"/>

  <!-- Trophy icon -->
  <g transform="translate(256, 256)">
    <!-- Trophy cup -->
    <path d="M -80 -50 L -65 50 L 65 50 L 80 -50 Z" fill="#fbbf24" stroke="#f59e0b" stroke-width="5"/>

    <!-- Trophy handles -->
    <path d="M -80 -25 Q -120 -25 -120 15 Q -120 40 -90 40" fill="none" stroke="#fbbf24" stroke-width="8"/>
    <path d="M 80 -25 Q 120 -25 120 15 Q 120 40 90 40" fill="none" stroke="#fbbf24" stroke-width="8"/>

    <!-- Trophy stem -->
    <rect x="-15" y="50" width="30" height="40" fill="#f59e0b"/>

    <!-- Trophy base -->
    <rect x="-50" y="90" width="100" height="15" fill="#f59e0b"/>
    <rect x="-65" y="105" width="130" height="15" fill="#d97706"/>

    <!-- CAN 2025 text -->
    <text x="0" y="-90" font-family="Arial, sans-serif" font-size="48" font-weight="bold" fill="white" text-anchor="middle">CAN</text>
    <text x="0" y="-40" font-family="Arial, sans-serif" font-size="36" font-weight="bold" fill="white" text-anchor="middle">2025</text>

    <!-- Algeria flag star -->
    <path d="M 0 -10 L 4 0 L 15 0 L 6.5 7 L 10 18 L 0 12 L -10 18 L -6.5 7 L -15 0 L -4 0 Z" fill="#ef4444" transform="translate(0, 140)"/>

    <!-- Subtitle -->
    <text x="0" y="180" font-family="Arial, sans-serif" font-size="20" fill="white" text-anchor="middle" opacity="0.9">ALGÉRIE</text>
  </g>
</svg>
